<svg width="130" height="82" viewBox="0 0 130 82" fill="none" xmlns="http://www.w3.org/2000/svg">
<path d="M33.75 27.5781C38.25 9.57812 49.5 0.578125 67.5 0.578125C94.5 0.578125 97.875 20.8281 111.375 24.2031C120.375 26.4531 128.25 23.0781 135 14.0781C130.5 32.0781 119.25 41.0781 101.25 41.0781C74.25 41.0781 70.875 20.8281 57.375 17.4531C48.375 15.2031 40.5 18.5781 33.75 27.5781ZM0 68.0781C4.5 50.0781 15.75 41.0781 33.75 41.0781C60.75 41.0781 64.125 61.3281 77.625 64.7031C86.625 66.9531 94.5 63.5781 101.25 54.5781C96.75 72.5781 85.5 81.5781 67.5 81.5781C40.5 81.5781 37.125 61.3281 23.625 57.9531C14.625 55.7031 6.75 59.0781 0 68.0781Z" fill="#44A8B3"/>
</svg>
