<svg width="33" height="43" viewBox="0 0 33 43" fill="none" xmlns="http://www.w3.org/2000/svg">
<path d="M12.5581 0V3.83066C11.5028 3.83066 10.6796 3.98157 10.0882 4.28338C9.49679 4.57357 9.24169 5.15977 9.32287 6.04199L9.86206 11.1785C10.0012 12.4786 9.85626 13.5292 9.42722 14.3301C9.00978 15.131 8.36623 15.7464 7.49655 16.1758C6.63848 16.5937 5.62386 16.8897 4.45271 17.0638C5.69343 17.2495 6.74284 17.5514 7.60092 17.9693C8.45899 18.3871 9.08516 18.9907 9.47941 19.7801C9.87365 20.5695 10.0012 21.6258 9.86206 22.9492L9.32287 28.0857C9.24169 28.9679 9.49679 29.5541 10.0882 29.8443C10.6796 30.146 11.5028 30.297 12.5581 30.297V34.1277C9.35765 34.1277 7.1081 33.6401 5.80939 32.6651C4.52229 31.7016 4.00048 30.0475 4.24398 27.7026L4.76579 22.7227C4.85856 21.8406 4.70782 21.1499 4.31357 20.6507C3.93091 20.1516 3.36272 19.8033 2.60901 19.6059C1.85529 19.3971 0.985626 19.2926 0 19.2926V14.8351C0.97403 14.8351 1.8379 14.7364 2.59162 14.5391C3.34533 14.3301 3.91932 13.9761 4.31357 13.477C4.70782 12.9778 4.85856 12.2871 4.76579 11.4049L4.24398 6.45987C3.98889 4.06862 4.51068 2.39706 5.80939 1.4452C7.1081 0.481734 9.35765 0 12.5581 0Z" fill="url(#paint0_linear_323_190)"/>
<g filter="url(#filter0_d_323_190)">
<path d="M16.442 0C19.6423 0 21.8861 0.481734 23.1733 1.4452C24.472 2.40867 24.9996 4.06862 24.7561 6.42505L24.2342 11.4049C24.1414 12.2871 24.2922 12.9778 24.6865 13.477C25.0807 13.9761 25.6488 14.3301 26.391 14.5391C27.1447 14.7364 28.0144 14.8351 29 14.8351V19.2926C28.026 19.2926 27.1622 19.3971 26.4084 19.6059C25.6547 19.8033 25.0807 20.1516 24.6865 20.6507C24.2922 21.1499 24.1414 21.8406 24.2342 22.7227L24.7561 27.6678C25.0228 30.0475 24.5009 31.719 23.1906 32.6824C21.8919 33.646 19.6423 34.1277 16.442 34.1277V30.297C17.5088 30.297 18.3379 30.146 18.9292 29.8443C19.5207 29.5541 19.7699 28.9679 19.6772 28.0857L19.1379 22.9492C18.9988 21.6374 19.1379 20.5868 19.5554 19.7976C19.9844 18.9965 20.6338 18.3871 21.5035 17.9693C22.3731 17.5397 23.3935 17.238 24.5647 17.0638C23.3239 16.8781 22.2688 16.5763 21.3991 16.1584C20.541 15.7405 19.9149 15.1369 19.5207 14.3476C19.1264 13.5466 18.9988 12.4903 19.1379 11.1785L19.6772 6.04199C19.7699 5.15977 19.5148 4.57357 18.9119 4.28338C18.3204 3.98157 17.4972 3.83066 16.442 3.83066V0Z" fill="url(#paint1_linear_323_190)"/>
<path d="M16.942 0.504126C19.8454 0.552837 21.7857 1.03115 22.8736 1.84549L22.8736 1.84549L22.8754 1.84677C23.9726 2.66076 24.4932 4.10347 24.2588 6.37326C24.2588 6.3734 24.2587 6.37353 24.2587 6.37366L23.737 11.3526C23.737 11.3527 23.737 11.3527 23.737 11.3528C23.636 12.3129 23.7916 13.1506 24.2941 13.7869C24.7666 14.3851 25.4338 14.789 26.2554 15.0204L26.2554 15.0204L26.2644 15.0228C26.9347 15.1982 27.6809 15.2981 28.5 15.3265V18.8018C27.6898 18.8321 26.9482 18.9379 26.2782 19.1232C25.4453 19.342 24.769 19.7395 24.2941 20.3408C23.7915 20.9771 23.636 21.8149 23.737 22.7751L23.737 22.7752L24.2588 27.7203L24.2592 27.7235C24.5163 30.0174 23.999 31.4674 22.8944 32.2796L22.8927 32.2809C21.793 33.0967 19.8455 33.5749 16.942 33.6236V30.7857C17.8232 30.7444 18.569 30.5885 19.153 30.2914C19.5507 30.0953 19.847 29.7891 20.0199 29.3827C20.1883 28.9867 20.2264 28.5276 20.1745 28.0335C20.1745 28.0335 20.1745 28.0335 20.1745 28.0335L19.6352 22.8969L19.6352 22.8964C19.5019 21.6397 19.6435 20.7012 19.9967 20.0326C20.3725 19.3315 20.9401 18.7947 21.72 18.42L21.72 18.42L21.725 18.4176C22.5389 18.0155 23.5075 17.7265 24.6382 17.5583L24.6387 16.5693C23.434 16.389 22.4302 16.0989 21.617 15.7083C20.8502 15.3347 20.3095 14.8072 19.9686 14.1255C19.632 13.4407 19.5016 12.4904 19.6352 11.2313L19.6352 11.2308L20.1745 6.09424C20.1745 6.09423 20.1745 6.09421 20.1745 6.0942C20.2265 5.5989 20.1867 5.13822 20.0139 4.74115C19.8369 4.33447 19.5354 4.03001 19.1341 3.83544C18.5518 3.53956 17.8126 3.38382 16.942 3.3422V0.504126Z" stroke="black"/>
</g>
<defs>
<filter id="filter0_d_323_190" x="12.442" y="0" width="20.558" height="42.1277" filterUnits="userSpaceOnUse" color-interpolation-filters="sRGB">
<feFlood flood-opacity="0" result="BackgroundImageFix"/>
<feColorMatrix in="SourceAlpha" type="matrix" values="0 0 0 0 0 0 0 0 0 0 0 0 0 0 0 0 0 0 127 0" result="hardAlpha"/>
<feOffset dy="4"/>
<feGaussianBlur stdDeviation="2"/>
<feComposite in2="hardAlpha" operator="out"/>
<feColorMatrix type="matrix" values="0 0 0 0 0 0 0 0 0 0 0 0 0 0 0 0 0 0 0.25 0"/>
<feBlend mode="normal" in2="BackgroundImageFix" result="effect1_dropShadow_323_190"/>
<feBlend mode="normal" in="SourceGraphic" in2="effect1_dropShadow_323_190" result="shape"/>
</filter>
<linearGradient id="paint0_linear_323_190" x1="-2.05005" y1="36.7549" x2="99.9719" y2="0.679714" gradientUnits="userSpaceOnUse">
<stop stop-color="#00C0FD"/>
<stop offset="1" stop-color="#E70FAA"/>
</linearGradient>
<linearGradient id="paint1_linear_323_190" x1="-70.05" y1="36.7549" x2="31.972" y2="0.679722" gradientUnits="userSpaceOnUse">
<stop stop-color="#00C0FD"/>
<stop offset="1" stop-color="#E70FAA"/>
</linearGradient>
</defs>
</svg>
